<?xml version="1.0" encoding="utf-8"?>
<!-- Generator: Adobe Illustrator 25.0.1, SVG Export Plug-In . SVG Version: 6.00 Build 0)  -->
<svg version="1.1" id="Capa_1" xmlns="http://www.w3.org/2000/svg" xmlns:xlink="http://www.w3.org/1999/xlink" x="0px" y="0px"
	 width="512px" height="512px" viewBox="0 0 512 512" style="enable-background:new 0 0 512 512;" xml:space="preserve">
<style type="text/css">
	.st0{fill:#FFFFFF;}
</style>
<path class="st0" d="M360.4,128.5H455L335.3,8.8v94.6C335.3,117.2,346.6,128.5,360.4,128.5z"/>
<path class="st0" d="M256,222.8c-53.7,0-97.5,43.7-97.5,97.5s43.7,97.5,97.5,97.5c53.7,0,97.5-43.7,97.5-97.5S309.7,222.8,256,222.8
	L256,222.8z M300.7,308.2l-45.4,45.4c-2.8,2.8-6.6,4.4-10.6,4.4c-4,0-7.8-1.6-10.6-4.4l-22.7-22.7c-5.9-5.9-5.9-15.4,0-21.2
	c5.9-5.9,15.4-5.9,21.2,0l12.1,12.1l34.8-34.8c5.9-5.9,15.4-5.9,21.2,0C306.5,292.8,306.5,302.3,300.7,308.2L300.7,308.2z"/>
<path class="st0" d="M360.4,158.5c-30.4,0-55.2-24.7-55.2-55.2V0H103.4C72.9,0,48.2,24.7,48.2,55.2v401.7
	c0,30.4,24.7,55.2,55.2,55.2h305.3c30.4,0,55.2-24.7,55.2-55.2V158.5L360.4,158.5z M256,447.7c-70.3,0-127.5-57.2-127.5-127.5
	S185.7,192.8,256,192.8c70.3,0,127.5,57.2,127.5,127.5S326.3,447.7,256,447.7z"/>
</svg>
