<?xml version="1.0" encoding="utf-8"?>
<!-- Generator: Adobe Illustrator 24.3.0, SVG Export Plug-In . SVG Version: 6.00 Build 0)  -->
<svg version="1.1" id="Layer_1" xmlns="http://www.w3.org/2000/svg" xmlns:xlink="http://www.w3.org/1999/xlink" x="0px" y="0px"
	 width="140px" height="66.4px" viewBox="0 0 140 66.4" style="enable-background:new 0 0 140 66.4;" xml:space="preserve">
<style type="text/css">
	.st0{fill:#8BBE4E;}
</style>
<g>
	<g>
		<path d="M87.1,20.1c2.7,0,5.1,1,7.1,3.1c2,2.1,3,4.7,3,7.8c0,3.2-1,5.9-3,8c-2,2.1-4.5,3.2-7.4,3.2c-2.9,0-5.4-1-7.3-3.1
			c-2-2.1-3-4.7-3-8c0-3.4,1.1-6.1,3.4-8.2C82,21,84.4,20.1,87.1,20.1z M86.9,21.2c-1.9,0-3.4,0.7-4.6,2.1c-1.4,1.7-2.1,4.3-2.1,7.7
			c0,3.5,0.7,6.1,2.2,8c1.1,1.4,2.6,2.1,4.5,2.1c2,0,3.6-0.8,4.9-2.3c1.3-1.5,1.9-4,1.9-7.3c0-3.6-0.7-6.3-2.1-8.1
			C90.4,21.9,88.9,21.2,86.9,21.2z"/>
		<path d="M112.2,41.7l-8.2-17.8V38c0,1.3,0.1,2.1,0.4,2.4c0.4,0.4,1,0.7,1.8,0.7h0.7v0.6h-7.4v-0.6h0.7c0.9,0,1.5-0.3,1.9-0.8
			c0.2-0.3,0.3-1.1,0.3-2.3V24.2c0-0.9-0.1-1.6-0.3-2c-0.1-0.3-0.4-0.6-0.8-0.8c-0.4-0.2-1-0.3-1.9-0.3v-0.6h6l7.7,16.5l7.5-16.5h6
			v0.6h-0.7c-0.9,0-1.5,0.3-1.9,0.8c-0.2,0.3-0.3,1.1-0.3,2.3V38c0,1.3,0.1,2.1,0.4,2.4c0.4,0.4,1,0.7,1.8,0.7h0.7v0.6h-9v-0.6h0.7
			c0.9,0,1.5-0.3,1.9-0.8c0.2-0.3,0.3-1.1,0.3-2.3V23.9l-8.2,17.8C112.7,41.7,112.2,41.7,112.2,41.7z"/>
		<g>
			<polygon points="24.7,13.3 27.9,20.8 35.4,25.4 26.6,4.9 25.7,4.9 20.8,16.2 22.8,17.5 			"/>
			<path d="M19.6,24.8l-1.8-1.6l-4.9,11.3c-1.1,2.6-2.1,4.3-3,5.2c-0.4,0.4-1.4,0.8-3,1v1h11.5v-1c-1.8-0.1-2.9-0.4-3.4-0.8
				c-0.5-0.4-0.8-0.9-0.8-1.4c0-0.7,0.3-1.7,0.9-3.1l2.5-5.7l0.8-2L19.6,24.8z"/>
		</g>
		<g>
			<path d="M71.4,40.4C71.3,40.1,71,39,71,37.9V24.3c0-1.3,0.1-2.1,0.4-2.4c0.4-0.5,1-0.8,1.9-0.8h0.8v-0.6H65v0.6h0.7
				c0.5,0,1,0.1,1.4,0.4c0.3,0.2,0.5,0.4,0.6,0.7c0.1,0.3,0.2,1.1,0.2,2.1v13.6c0,0.6,0,1.1-0.1,1.4"/>
		</g>
		<g>
			<path class="st0" d="M1.8,0C13.4,17.2,29.3,28.7,46,36.3l2.6-3.1C15.9,18.5,1.8,0,1.8,0z"/>
			<path class="st0" d="M134,50.7c-33.2-1.2-63.3-8-82.9-16.4l-2.6,3.2C87.6,54.3,134,50.7,134,50.7z"/>
		</g>
		<g>
			<path d="M4,9.4c0,0,9.2,18.2,38.1,31.6l2.2-2.7C29.2,31.8,14.8,22.5,4,9.4z"/>
			<path d="M140,54.6c0,0-52.7,1.4-93-15.2l-2.2,2.7C64.4,50.7,100.3,57.3,140,54.6z"/>
		</g>
		<g>
			<path d="M53.6,30l4.2-5.4c0.9-1.1,1.5-1.8,2-2.2c0.5-0.4,1-0.7,1.5-1c0.4-0.2,0.9-0.2,1.4-0.3v-0.6h-7.5v0.6
				c0.7,0,1.2,0.1,1.5,0.1c0.2,0.1,0.4,0.2,0.6,0.5c0.1,0.2,0.2,0.4,0.2,0.6c0,0.2-0.1,0.4-0.1,0.6c-0.1,0.2-0.4,0.6-0.8,1.2
				l-3.8,4.8L49.5,24c-0.5-0.7-0.7-1.3-0.7-1.7c0-0.3,0.2-0.6,0.5-0.8c0.3-0.2,0.9-0.4,1.7-0.4v-0.6h-9.8v0.6c1,0,1.9,0.3,2.7,0.8
				c0.8,0.5,1.8,1.6,2.9,3.2l4.2,6.1l-8.5,10.5c-0.7,0.9-1.4,1.6-2,2.1c-0.6,0.5-1.2,0.8-1.8,1.1c-0.4,0.2-0.8,0.3-1.4,0.3v0.6h7.5
				v-0.6c-0.8,0-1.3-0.2-1.6-0.4c-0.3-0.2-0.4-0.5-0.4-0.8c0-0.2,0-0.4,0.1-0.6c0.1-0.2,0.4-0.6,0.8-1.2l7.9-9.9l1.2,1.9
				c1.2,0.4,3.3,1.3,4.7,1.8L53.6,30z"/>
		</g>
	</g>
	<g>
		<path class="st0" d="M3.5,64.5l1.4-3.3h2.1v0.1H6.8c-0.1,0-0.3,0-0.4,0.1c-0.1,0-0.1,0.1-0.1,0.2c0,0.1,0,0.2,0,0.5v3.3
			c0,0.3,0,0.4,0,0.5c0,0.1,0.1,0.1,0.2,0.2c0.1,0,0.2,0.1,0.3,0.1h0.2v0.1H4.3v-0.1h0.2c0.1,0,0.3,0,0.4-0.1c0.1,0,0.1-0.1,0.1-0.2
			c0-0.1,0-0.2,0-0.5v-3.7l-1.9,4.6H3l-2-4.6v3.6c0,0.2,0,0.4,0,0.5c0,0.1,0.1,0.2,0.2,0.3c0.1,0.1,0.3,0.1,0.5,0.1v0.1H0v-0.1h0.1
			c0.1,0,0.2,0,0.3-0.1c0.1,0,0.2-0.1,0.2-0.2c0-0.1,0.1-0.2,0.1-0.3c0,0,0-0.2,0-0.4V62c0-0.3,0-0.4,0-0.5c0-0.1-0.1-0.1-0.2-0.2
			c-0.1,0-0.2-0.1-0.3-0.1H0v-0.1h2.1L3.5,64.5z"/>
		<path class="st0" d="M12.3,61.1c0.8,0,1.5,0.2,2,0.7c0.5,0.5,0.8,1.1,0.8,1.9c0,0.6-0.2,1.2-0.6,1.7c-0.5,0.6-1.2,1-2.1,1
			c-0.9,0-1.6-0.3-2.1-0.9c-0.4-0.5-0.6-1.1-0.6-1.7c0-0.8,0.3-1.4,0.8-1.9C10.9,61.3,11.6,61.1,12.3,61.1z M12.3,61.4
			c-0.5,0-0.8,0.2-1.1,0.7C11.1,62.5,11,63,11,63.7c0,0.9,0.2,1.5,0.5,1.9c0.2,0.3,0.5,0.4,0.9,0.4c0.3,0,0.5-0.1,0.6-0.2
			c0.2-0.2,0.4-0.4,0.5-0.8c0.1-0.3,0.2-0.8,0.2-1.4c0-0.7-0.1-1.2-0.2-1.5c-0.1-0.3-0.3-0.6-0.5-0.7C12.8,61.4,12.6,61.4,12.3,61.4
			z"/>
		<path class="st0" d="M19.6,63.9v1.4c0,0.3,0,0.4,0.1,0.5c0,0.1,0.1,0.1,0.2,0.2c0.1,0,0.2,0.1,0.5,0.1v0.1h-2.6v-0.1
			c0.2,0,0.4,0,0.5-0.1c0.1,0,0.1-0.1,0.2-0.2c0-0.1,0.1-0.2,0.1-0.5v-3.3c0-0.3,0-0.4-0.1-0.5c0-0.1-0.1-0.1-0.2-0.2
			c-0.1,0-0.2-0.1-0.5-0.1v-0.1h2.3c0.6,0,1.1,0,1.3,0.1c0.3,0.1,0.5,0.2,0.7,0.5c0.2,0.2,0.3,0.5,0.3,0.8c0,0.4-0.1,0.7-0.4,0.9
			c-0.2,0.2-0.4,0.3-0.7,0.3l1.2,1.7c0.2,0.2,0.3,0.4,0.3,0.4c0.1,0.1,0.2,0.1,0.4,0.1v0.1h-1.6l-1.6-2.3
			C19.9,63.9,19.6,63.9,19.6,63.9z M19.6,61.5v2.2h0.2c0.3,0,0.6,0,0.8-0.1c0.2-0.1,0.3-0.2,0.4-0.3s0.1-0.4,0.1-0.6
			c0-0.4-0.1-0.7-0.3-0.9c-0.2-0.2-0.5-0.3-0.9-0.3H19.6z"/>
		<path class="st0" d="M29.9,61.2v1.4h-0.1c-0.1-0.3-0.2-0.5-0.3-0.7s-0.2-0.2-0.4-0.3c-0.1,0-0.3-0.1-0.5-0.1h-0.4v3.9
			c0,0.3,0,0.4,0,0.5c0,0.1,0.1,0.1,0.2,0.2c0.1,0,0.2,0.1,0.3,0.1H29v0.1h-2.6v-0.1h0.2c0.1,0,0.3,0,0.4-0.1c0.1,0,0.1-0.1,0.2-0.2
			c0-0.1,0-0.2,0-0.5v-3.9h-0.4c-0.3,0-0.6,0.1-0.7,0.2c-0.2,0.2-0.4,0.5-0.4,0.9h-0.1v-1.4L29.9,61.2L29.9,61.2z"/>
		<path class="st0" d="M37.8,61.1v1.8h-0.1c-0.2-0.5-0.4-0.9-0.7-1.1c-0.3-0.3-0.7-0.4-1.1-0.4c-0.4,0-0.7,0.1-0.9,0.3
			c-0.3,0.2-0.4,0.5-0.5,0.9c-0.1,0.4-0.2,0.8-0.2,1.2c0,0.5,0.1,0.9,0.2,1.3c0.1,0.4,0.3,0.6,0.6,0.8c0.3,0.2,0.6,0.3,0.9,0.3
			c0.1,0,0.2,0,0.4,0c0.1,0,0.3-0.1,0.4-0.1v-1.1c0-0.2,0-0.3,0-0.4c0-0.1-0.1-0.1-0.2-0.2c-0.1,0-0.2-0.1-0.3-0.1h-0.1v-0.1h2.5
			v0.1c-0.2,0-0.3,0-0.4,0.1c-0.1,0-0.1,0.1-0.2,0.2c0,0,0,0.2,0,0.3v1.1c-0.3,0.1-0.7,0.3-1,0.3c-0.3,0.1-0.7,0.1-1.1,0.1
			c-0.5,0-0.9-0.1-1.2-0.2s-0.6-0.3-0.8-0.5c-0.2-0.2-0.4-0.5-0.6-0.7c-0.2-0.3-0.3-0.7-0.3-1.2c0-0.8,0.3-1.4,0.8-1.9
			c0.5-0.5,1.2-0.8,2-0.8c0.3,0,0.5,0,0.7,0.1c0.1,0,0.3,0.1,0.5,0.2c0.2,0.1,0.4,0.1,0.4,0.1c0.1,0,0.1,0,0.2-0.1
			c0.1-0.1,0.1-0.1,0.2-0.3L37.8,61.1L37.8,61.1z"/>
		<path class="st0" d="M43.9,64.8h-1.8l-0.2,0.5c-0.1,0.2-0.1,0.3-0.1,0.4c0,0.1,0.1,0.2,0.2,0.3c0.1,0,0.2,0.1,0.5,0.1v0.1h-1.7
			v-0.1c0.2,0,0.3-0.1,0.4-0.2s0.3-0.4,0.4-0.8l1.8-4h0.1l1.8,4.1c0.2,0.4,0.3,0.6,0.4,0.7c0.1,0.1,0.2,0.1,0.4,0.1v0.1h-2.4v-0.1
			h0.1c0.2,0,0.3,0,0.4-0.1c0.1,0,0.1-0.1,0.1-0.2c0,0,0-0.1,0-0.1c0,0,0-0.1-0.1-0.3L43.9,64.8z M43.8,64.5L43,62.8l-0.8,1.7H43.8z
			"/>
		<path class="st0" d="M53.8,61.1v1.8h-0.1c-0.2-0.5-0.4-0.9-0.7-1.1c-0.3-0.3-0.7-0.4-1.1-0.4c-0.4,0-0.7,0.1-0.9,0.3
			c-0.3,0.2-0.4,0.5-0.5,0.9c-0.1,0.4-0.2,0.8-0.2,1.2c0,0.5,0.1,0.9,0.2,1.3c0.1,0.4,0.3,0.6,0.6,0.8c0.3,0.2,0.6,0.3,0.9,0.3
			c0.1,0,0.2,0,0.4,0c0.1,0,0.3-0.1,0.4-0.1v-1.1c0-0.2,0-0.3,0-0.4c0-0.1-0.1-0.1-0.2-0.2c-0.1,0-0.2-0.1-0.3-0.1H52v-0.1h2.5v0.1
			c-0.2,0-0.3,0-0.4,0.1c-0.1,0-0.1,0.1-0.2,0.2c0,0,0,0.2,0,0.3v1.1c-0.3,0.1-0.7,0.3-1,0.3c-0.3,0.1-0.7,0.1-1.1,0.1
			c-0.5,0-0.9-0.1-1.2-0.2c-0.3-0.1-0.6-0.3-0.8-0.5c-0.2-0.2-0.4-0.5-0.6-0.7c-0.2-0.3-0.3-0.7-0.3-1.2c0-0.8,0.3-1.4,0.8-1.9
			c0.5-0.5,1.2-0.8,2-0.8c0.3,0,0.5,0,0.7,0.1c0.1,0,0.3,0.1,0.5,0.2c0.2,0.1,0.4,0.1,0.4,0.1c0.1,0,0.1,0,0.2-0.1
			c0.1-0.1,0.1-0.1,0.2-0.3L53.8,61.1L53.8,61.1z"/>
		<path class="st0" d="M58.9,61.5v2.1H59c0.3,0,0.6-0.1,0.7-0.3c0.1-0.2,0.2-0.5,0.3-0.9h0.1V65h-0.1c0-0.3-0.1-0.5-0.2-0.7
			c-0.1-0.2-0.2-0.3-0.3-0.4c-0.1-0.1-0.3-0.1-0.6-0.1v1.4c0,0.3,0,0.4,0,0.5c0,0.1,0.1,0.1,0.1,0.2c0.1,0,0.2,0.1,0.3,0.1h0.3
			c0.5,0,0.9-0.1,1.1-0.3c0.3-0.2,0.5-0.6,0.6-1h0.1l-0.2,1.6h-4.4v-0.1h0.2c0.1,0,0.3,0,0.4-0.1c0.1,0,0.1-0.1,0.1-0.2
			c0-0.1,0-0.2,0-0.5v-3.3c0-0.2,0-0.4,0-0.4c0-0.1-0.1-0.2-0.1-0.2c-0.1-0.1-0.2-0.1-0.4-0.1h-0.2v-0.1h4.2v1.5H61
			c-0.1-0.4-0.2-0.6-0.3-0.8c-0.1-0.2-0.3-0.3-0.6-0.4c-0.1,0-0.4-0.1-0.8-0.1L58.9,61.5L58.9,61.5z"/>
		<path class="st0" d="M80.4,61.1l0,1.7h-0.2c-0.1-0.4-0.2-0.8-0.5-1c-0.3-0.3-0.6-0.4-0.9-0.4c-0.3,0-0.5,0.1-0.6,0.2
			C78.1,61.7,78,61.8,78,62c0,0.1,0,0.2,0.1,0.3c0.1,0.1,0.2,0.2,0.3,0.3c0.1,0.1,0.4,0.2,0.8,0.4c0.6,0.3,1,0.6,1.2,0.8
			c0.2,0.3,0.3,0.6,0.3,0.9c0,0.4-0.2,0.8-0.5,1.1c-0.3,0.3-0.7,0.5-1.3,0.5c-0.2,0-0.3,0-0.5,0c-0.1,0-0.3-0.1-0.5-0.2
			c-0.1,0-0.2-0.1-0.3-0.1c-0.1,0-0.1,0-0.2,0.1c-0.1,0.1-0.1,0.1-0.2,0.2h-0.1v-1.9h0.1c0.1,0.5,0.3,0.9,0.6,1.2
			c0.3,0.3,0.6,0.4,1,0.4c0.3,0,0.5-0.1,0.7-0.2c0.2-0.2,0.2-0.3,0.2-0.5c0-0.1,0-0.2-0.1-0.3c-0.1-0.1-0.2-0.2-0.3-0.3
			c-0.1-0.1-0.4-0.2-0.7-0.4c-0.5-0.2-0.8-0.4-1-0.6s-0.4-0.3-0.5-0.5c-0.1-0.2-0.2-0.4-0.2-0.6c0-0.4,0.1-0.7,0.4-1
			s0.7-0.4,1.1-0.4c0.2,0,0.3,0,0.5,0.1c0.1,0,0.3,0.1,0.4,0.2c0.2,0.1,0.3,0.1,0.4,0.1c0.1,0,0.1,0,0.2-0.1s0.1-0.1,0.1-0.3
			L80.4,61.1L80.4,61.1z"/>
		<path class="st0" d="M86.3,61.1c0.8,0,1.5,0.2,2,0.7c0.5,0.5,0.8,1.1,0.8,1.9c0,0.6-0.2,1.2-0.6,1.7c-0.5,0.6-1.2,1-2.1,1
			c-0.9,0-1.6-0.3-2.1-0.9c-0.4-0.5-0.6-1.1-0.6-1.7c0-0.8,0.3-1.4,0.8-1.9C84.9,61.3,85.5,61.1,86.3,61.1z M86.3,61.4
			c-0.5,0-0.8,0.2-1.1,0.7C85.1,62.5,85,63,85,63.7c0,0.9,0.2,1.5,0.5,1.9c0.2,0.3,0.5,0.4,0.9,0.4c0.3,0,0.5-0.1,0.6-0.2
			c0.2-0.2,0.4-0.4,0.5-0.8c0.1-0.3,0.2-0.8,0.2-1.4c0-0.7-0.1-1.2-0.2-1.5c-0.1-0.3-0.3-0.6-0.5-0.7C86.8,61.4,86.6,61.4,86.3,61.4
			z"/>
		<path class="st0" d="M96.4,64.5l-0.2,1.8h-4.5v-0.1h0.2c0.1,0,0.3,0,0.4-0.1c0.1,0,0.1-0.1,0.1-0.2c0-0.1,0-0.2,0-0.5v-3.3
			c0-0.3,0-0.4,0-0.5c0-0.1-0.1-0.1-0.2-0.2c-0.1,0-0.2-0.1-0.3-0.1h-0.2v-0.1h2.7v0.1h-0.2c-0.1,0-0.3,0-0.4,0.1
			c-0.1,0-0.1,0.1-0.2,0.2c0,0.1,0,0.2,0,0.5v3.2c0,0.3,0,0.4,0,0.5c0,0.1,0.1,0.1,0.2,0.2c0.1,0,0.2,0,0.5,0h0.4
			c0.3,0,0.5,0,0.7-0.1c0.2-0.1,0.3-0.2,0.5-0.4c0.1-0.2,0.3-0.5,0.4-0.9L96.4,64.5L96.4,64.5z"/>
		<path class="st0" d="M99.1,61.2h2.6v0.1h-0.1c-0.2,0-0.3,0-0.4,0.1c-0.1,0-0.1,0.1-0.2,0.2c0,0.1,0,0.3,0,0.5v2.5
			c0,0.5,0,0.8,0.1,0.9c0.1,0.1,0.2,0.3,0.3,0.4s0.4,0.1,0.6,0.1c0.3,0,0.5-0.1,0.7-0.2c0.2-0.1,0.3-0.3,0.4-0.5
			c0.1-0.2,0.1-0.6,0.1-1.1v-2.1c0-0.2,0-0.4-0.1-0.5c0-0.1-0.1-0.2-0.2-0.2c-0.1-0.1-0.3-0.1-0.5-0.1v-0.1h1.7v0.1h-0.1
			c-0.1,0-0.3,0-0.4,0.1c-0.1,0.1-0.2,0.1-0.2,0.3c0,0.1,0,0.2,0,0.4V64c0,0.6,0,1-0.1,1.3c-0.1,0.3-0.3,0.5-0.6,0.7
			c-0.3,0.2-0.7,0.3-1.2,0.3c-0.4,0-0.8-0.1-1-0.2c-0.3-0.2-0.6-0.4-0.7-0.6c-0.1-0.2-0.2-0.6-0.2-1v-2.5c0-0.3,0-0.5,0-0.5
			c0-0.1-0.1-0.1-0.2-0.2c-0.1,0-0.2-0.1-0.4-0.1L99.1,61.2L99.1,61.2z"/>
		<path class="st0" d="M111.6,61.2v1.4h-0.1c-0.1-0.3-0.2-0.5-0.3-0.7c-0.1-0.1-0.2-0.2-0.4-0.3c-0.1,0-0.3-0.1-0.5-0.1h-0.4v3.9
			c0,0.3,0,0.4,0,0.5c0,0.1,0.1,0.1,0.2,0.2c0.1,0,0.2,0.1,0.3,0.1h0.2v0.1H108v-0.1h0.2c0.1,0,0.3,0,0.4-0.1c0.1,0,0.1-0.1,0.2-0.2
			c0-0.1,0-0.2,0-0.5v-3.9h-0.4c-0.3,0-0.6,0.1-0.7,0.2c-0.2,0.2-0.4,0.5-0.4,0.9H107v-1.4L111.6,61.2L111.6,61.2z"/>
		<path class="st0" d="M116.9,66.1v0.1h-2.6v-0.1h0.2c0.1,0,0.3,0,0.4-0.1c0.1,0,0.1-0.1,0.1-0.2c0-0.1,0-0.2,0-0.5v-3.3
			c0-0.3,0-0.4,0-0.5c0-0.1-0.1-0.1-0.2-0.2c-0.1,0-0.2-0.1-0.3-0.1h-0.2v-0.1h2.6v0.1h-0.2c-0.1,0-0.3,0-0.4,0.1
			c-0.1,0-0.1,0.1-0.2,0.2c0,0.1,0,0.2,0,0.5v3.3c0,0.3,0,0.4,0,0.5c0,0.1,0.1,0.1,0.2,0.2c0.1,0,0.2,0.1,0.3,0.1
			C116.8,66.1,116.9,66.1,116.9,66.1z"/>
		<path class="st0" d="M122.4,61.1c0.8,0,1.5,0.2,2,0.7c0.5,0.5,0.8,1.1,0.8,1.9c0,0.6-0.2,1.2-0.6,1.7c-0.5,0.6-1.2,1-2.1,1
			c-0.9,0-1.6-0.3-2.1-0.9c-0.4-0.5-0.6-1.1-0.6-1.7c0-0.8,0.3-1.4,0.8-1.9C121,61.3,121.6,61.1,122.4,61.1z M122.4,61.4
			c-0.5,0-0.8,0.2-1.1,0.7c-0.2,0.4-0.3,0.9-0.3,1.7c0,0.9,0.2,1.5,0.5,1.9c0.2,0.3,0.5,0.4,0.9,0.4c0.3,0,0.5-0.1,0.6-0.2
			c0.2-0.2,0.4-0.4,0.5-0.8c0.1-0.3,0.2-0.8,0.2-1.4c0-0.7-0.1-1.2-0.2-1.5c-0.1-0.3-0.3-0.6-0.5-0.7
			C122.9,61.4,122.7,61.4,122.4,61.4z"/>
		<path class="st0" d="M129.5,61.2l2.5,3.1v-2.2c0-0.3,0-0.5-0.1-0.6c-0.1-0.1-0.3-0.2-0.6-0.2v-0.1h1.7v0.1c-0.2,0-0.4,0.1-0.4,0.1
			c-0.1,0-0.1,0.1-0.2,0.2c0,0.1-0.1,0.3-0.1,0.5v4.2h-0.1l-3.4-4.2v3.2c0,0.3,0.1,0.5,0.2,0.6c0.1,0.1,0.3,0.2,0.5,0.2h0.1v0.1
			h-1.8v-0.1c0.3,0,0.5-0.1,0.6-0.2c0.1-0.1,0.2-0.3,0.2-0.6v-3.6l-0.1-0.1c-0.1-0.1-0.2-0.2-0.3-0.3c-0.1,0-0.2-0.1-0.4-0.1v-0.1
			C127.8,61.2,129.5,61.2,129.5,61.2z"/>
		<path class="st0" d="M139,61.1l0,1.7h-0.2c-0.1-0.4-0.2-0.8-0.5-1c-0.3-0.3-0.6-0.4-0.9-0.4c-0.3,0-0.5,0.1-0.6,0.2
			c-0.1,0.1-0.2,0.3-0.2,0.5c0,0.1,0,0.2,0.1,0.3c0.1,0.1,0.2,0.2,0.3,0.3c0.1,0.1,0.4,0.2,0.8,0.4c0.6,0.3,1,0.6,1.2,0.8
			c0.2,0.3,0.3,0.6,0.3,0.9c0,0.4-0.2,0.8-0.5,1.1c-0.3,0.3-0.7,0.5-1.3,0.5c-0.2,0-0.3,0-0.5,0c-0.1,0-0.3-0.1-0.5-0.2
			c-0.1,0-0.2-0.1-0.3-0.1c-0.1,0-0.1,0-0.2,0.1c-0.1,0.1-0.1,0.1-0.2,0.2h-0.1v-1.9h0.1c0.1,0.5,0.3,0.9,0.6,1.2
			c0.3,0.3,0.6,0.4,1,0.4c0.3,0,0.5-0.1,0.7-0.2c0.2-0.2,0.2-0.3,0.2-0.5c0-0.1,0-0.2-0.1-0.3c-0.1-0.1-0.2-0.2-0.3-0.3
			c-0.1-0.1-0.4-0.2-0.7-0.4c-0.5-0.2-0.8-0.4-1-0.6s-0.4-0.3-0.5-0.5c-0.1-0.2-0.2-0.4-0.2-0.6c0-0.4,0.1-0.7,0.4-1
			c0.3-0.3,0.7-0.4,1.1-0.4c0.2,0,0.3,0,0.5,0.1c0.1,0,0.3,0.1,0.4,0.2c0.2,0.1,0.3,0.1,0.4,0.1c0.1,0,0.1,0,0.2-0.1
			c0,0,0.1-0.1,0.1-0.3L139,61.1L139,61.1z"/>
	</g>
</g>
</svg>
