<?xml version="1.0" encoding="utf-8"?>
<!-- Generator: Adobe Illustrator 24.3.0, SVG Export Plug-In . SVG Version: 6.00 Build 0)  -->
<svg version="1.1" id="Layer_1" xmlns="http://www.w3.org/2000/svg" xmlns:xlink="http://www.w3.org/1999/xlink" x="0px" y="0px"
	 width="140px" height="68.4px" viewBox="0 0 140 68.4" style="enable-background:new 0 0 140 68.4;" xml:space="preserve">
<style type="text/css">
	.st0{fill:#FFFFFF;}
	.st1{fill:#84BD00;}
</style>
<g>
	<g>
		<path class="st0" d="M86.4,20.3c2.8,0,5.2,1,7.2,3.2s3.1,4.7,3.1,7.9c0,3.2-1,6-3.1,8.1c-2,2.2-4.5,3.2-7.4,3.2
			c-2.9,0-5.4-1-7.4-3.1c-2-2.1-3-4.8-3-8.1c0-3.4,1.2-6.2,3.5-8.3C81.2,21.2,83.6,20.3,86.4,20.3z M86.1,21.5
			c-1.9,0-3.5,0.7-4.6,2.1c-1.4,1.8-2.2,4.3-2.2,7.8c0,3.5,0.8,6.2,2.2,8.1c1.2,1.4,2.7,2.2,4.6,2.2c2,0,3.7-0.8,5-2.3
			c1.3-1.6,2-4,2-7.4c0-3.7-0.7-6.4-2.2-8.2C89.8,22.2,88.2,21.5,86.1,21.5z"/>
		<path class="st0" d="M111.8,42.2l-8.3-18v14.3c0,1.3,0.1,2.2,0.4,2.5c0.4,0.4,1,0.6,1.8,0.6h0.8v0.6h-7.4v-0.6h0.8
			c0.9,0,1.5-0.3,1.9-0.8c0.2-0.3,0.4-1.1,0.4-2.3v-14c0-0.9-0.1-1.6-0.3-2c-0.1-0.3-0.4-0.6-0.8-0.8c-0.4-0.2-1-0.3-1.9-0.3v-0.6
			h6.1l7.8,16.7l7.7-16.7h6.1v0.6h-0.8c-0.9,0-1.5,0.3-1.9,0.8c-0.2,0.3-0.4,1.1-0.4,2.3v14c0,1.3,0.1,2.2,0.4,2.5
			c0.4,0.4,1,0.6,1.8,0.6h0.8v0.6h-9.1v-0.6h0.8c0.9,0,1.5-0.3,1.9-0.8c0.2-0.3,0.4-1.1,0.4-2.3V24.2l-8.3,18H111.8z"/>
		<g>
			<polygon class="st0" points="23.2,13.5 26.4,21.1 34,25.8 25.1,5 24.2,5 19.2,16.4 21.2,17.7 			"/>
			<path class="st0" d="M18,25.1l-1.9-1.6l-5,11.5c-1.1,2.6-2.2,4.4-3.1,5.2c-0.5,0.4-1.4,0.8-3,1v1h11.6v-1
				c-1.8-0.1-2.9-0.4-3.5-0.8c-0.5-0.4-0.8-0.9-0.8-1.5c0-0.7,0.3-1.8,0.9-3.2L16,30l0.8-2L18,25.1z"/>
		</g>
		<g>
			<path class="st0" d="M70.5,40.9c-0.1-0.4-0.4-1.4-0.4-2.5V24.6c0-1.3,0.1-2.1,0.4-2.4c0.4-0.5,1-0.8,1.9-0.8h0.8v-0.6h-9.2v0.6
				h0.8c0.5,0,1,0.1,1.4,0.4c0.3,0.2,0.5,0.4,0.6,0.7c0.1,0.4,0.2,1.1,0.2,2.2v13.8c0,0.6,0,1.1,0,1.5"/>
		</g>
		<g>
			<path class="st1" d="M0,0c11.7,17.4,27.8,29.1,44.7,36.8l2.7-3.2C14.2,18.7,0,0,0,0z"/>
			<path class="st1" d="M133.9,51.3c-33.6-1.2-64.1-8.1-84-16.6L47.3,38C86.9,55,133.9,51.3,133.9,51.3z"/>
		</g>
		<g>
			<path class="st0" d="M2.2,9.6c0,0,9.4,18.4,38.6,32l2.3-2.7C27.7,32.2,13.2,22.8,2.2,9.6z"/>
			<path class="st0" d="M140,55.4c0,0-53.4,1.5-94.3-15.4l-2.2,2.8C63.4,51.4,99.8,58,140,55.4z"/>
		</g>
		<g>
			<path class="st0" d="M52.4,30.4l4.2-5.4c0.9-1.1,1.5-1.9,2-2.3s1-0.7,1.5-1c0.4-0.1,0.9-0.3,1.5-0.3v-0.6h-7.6v0.6
				c0.8,0,1.3,0.1,1.5,0.1c0.3,0.1,0.4,0.3,0.6,0.5c0.1,0.2,0.2,0.4,0.2,0.6s0,0.4-0.1,0.6c-0.1,0.2-0.4,0.6-0.8,1.2l-3.8,4.8
				l-3.3-4.9c-0.5-0.8-0.8-1.3-0.8-1.7c0-0.3,0.1-0.6,0.5-0.8c0.3-0.3,0.9-0.4,1.7-0.4v-0.6h-9.9v0.6c1,0,2,0.3,2.8,0.8
				c0.8,0.5,1.8,1.6,2.9,3.3l4.2,6.2l-8.6,10.7c-0.8,1-1.4,1.7-2,2.1s-1.2,0.8-1.9,1.1c-0.4,0.2-0.9,0.3-1.4,0.3v0.6h7.6V46
				c-0.8,0-1.3-0.1-1.6-0.4c-0.3-0.2-0.4-0.5-0.4-0.8c0-0.2,0-0.4,0.1-0.6c0.1-0.2,0.4-0.6,0.9-1.2l8.1-10l1.3,1.9
				c1.2,0.4,3.3,1.4,4.7,1.8L52.4,30.4z"/>
		</g>
	</g>
	<g>
		<path class="st0" d="M7.1,68.2c-0.1,0-0.3,0-0.5,0c-0.3,0-0.4,0-0.6,0c-0.1,0-0.3,0-0.6,0c-0.3,0-0.4,0-0.6,0v-0.1
			c0.3,0,0.5-0.1,0.6-0.2c0.1-0.1,0.2-0.4,0.2-0.6c0-0.2,0-0.8-0.1-1.5c0-0.8-0.1-1.4-0.1-1.7l-1.8,4.3H3.3L1.4,64l-0.2,3.2
			c0,0,0,0.1,0,0.2c0,0.3,0,0.4,0.1,0.6c0.1,0.1,0.3,0.2,0.5,0.2v0.1c-0.1,0-0.3,0-0.5,0c-0.2,0-0.4,0-0.5,0s-0.3,0-0.5,0
			c-0.2,0-0.4,0-0.5,0v-0.1c0.2,0,0.4-0.1,0.5-0.3s0.2-0.5,0.2-1c0-0.3,0-0.6,0.1-1c0-0.4,0.1-0.8,0.1-1.2c0-0.4,0-0.7,0-0.8
			c0-0.1,0-0.3,0-0.3s-0.1-0.1-0.3-0.2S0.3,63.1,0,63v-0.1c0.1,0,0.2,0,0.4,0c0.2,0,0.3,0,0.4,0s0.2,0,0.4,0c0.2,0,0.3,0,0.4,0
			l1.9,4.4l1.9-4.4c0.1,0,0.2,0,0.4,0c0.2,0,0.3,0,0.4,0c0.1,0,0.2,0,0.4,0c0.2,0,0.3,0,0.4,0V63c-0.2,0-0.3,0.1-0.5,0.1
			c-0.1,0.1-0.2,0.1-0.3,0.2c-0.1,0.1-0.1,0.2-0.1,0.3c0,0.1,0,0.3,0,0.5c0,0.1,0,0.4,0,0.9c0,0.5,0.1,1,0.1,1.4
			c0,0.4,0.1,0.7,0.1,0.8c0,0.3,0.1,0.5,0.2,0.6C6.6,68,6.8,68.1,7,68.1L7.1,68.2L7.1,68.2z"/>
		<path class="st0" d="M15.1,65.7c0,0.5-0.1,1-0.4,1.4c-0.3,0.4-0.5,0.7-0.9,0.9c-0.4,0.2-0.8,0.3-1.2,0.3c-0.4,0-0.7-0.1-1-0.2
			c-0.3-0.1-0.6-0.3-0.8-0.6c-0.2-0.3-0.4-0.5-0.5-0.9c-0.1-0.4-0.2-0.7-0.2-1.2c0-0.5,0.1-0.9,0.3-1.3c0.2-0.4,0.4-0.6,0.6-0.9
			c0.3-0.2,0.5-0.4,0.8-0.5s0.5-0.1,0.8-0.1c0.4,0,0.8,0.1,1.2,0.3c0.4,0.2,0.7,0.5,1,1C15,64.4,15.1,65,15.1,65.7z M14.3,65.7
			c0-0.6-0.1-1-0.3-1.4c-0.2-0.4-0.4-0.7-0.7-0.9c-0.3-0.2-0.5-0.3-0.8-0.3s-0.5,0.1-0.8,0.3c-0.3,0.2-0.4,0.4-0.6,0.8
			C11,64.5,11,64.9,11,65.4c0,0.5,0.1,0.9,0.2,1.3c0.1,0.4,0.4,0.7,0.6,0.9c0.3,0.2,0.6,0.3,0.9,0.3c0.2,0,0.4,0,0.6-0.1
			c0.2-0.1,0.4-0.2,0.5-0.4c0.1-0.2,0.3-0.4,0.4-0.7C14.2,66.5,14.3,66.1,14.3,65.7z"/>
		<path class="st0" d="M23.5,68v0.1c-0.3,0.1-0.5,0.1-0.6,0.1c-0.2,0-0.4,0-0.5-0.1c-0.1-0.1-0.3-0.1-0.4-0.3
			c-0.1-0.1-0.4-0.4-0.6-0.8c-0.3-0.4-0.5-0.8-0.6-1.1c0,0-0.1,0-0.2,0c-0.1,0-0.1,0-0.2,0h-0.7v1.3c0,0.2,0,0.4,0.1,0.5
			c0.1,0.1,0.3,0.3,0.5,0.3v0.1c-0.1,0-0.3,0-0.5,0c-0.2,0-0.4,0-0.5,0c-0.1,0-0.3,0-0.5,0c-0.2,0-0.4,0-0.5,0V68
			c0.2,0,0.4-0.1,0.5-0.2c0.1-0.1,0.2-0.2,0.2-0.3c0-0.1,0-0.3,0-0.4v-3.1c0-0.3,0-0.5,0-0.6c0-0.1-0.1-0.3-0.2-0.3
			C18.6,63,18.5,63,18.3,63v-0.1c0.8-0.1,1.5-0.1,2-0.1c0.5,0,1,0.1,1.4,0.3s0.6,0.6,0.6,1.2c0,0.3-0.1,0.5-0.2,0.8
			c-0.1,0.3-0.4,0.5-0.6,0.7c0.1,0.2,0.3,0.5,0.4,0.8c0.2,0.3,0.3,0.5,0.5,0.7c0.1,0.2,0.3,0.4,0.4,0.5c0.2,0.1,0.3,0.3,0.4,0.3
			C23.3,68,23.4,68,23.5,68z M21.4,64.4c0-0.3-0.1-0.5-0.2-0.7c-0.1-0.2-0.3-0.3-0.4-0.4c-0.2-0.1-0.4-0.1-0.6-0.1s-0.4,0-0.6,0.1
			c0,0.3,0,0.5,0,0.7v1.8c0.2,0,0.4,0.1,0.6,0.1c0.4,0,0.7-0.1,0.9-0.3C21.4,65.2,21.4,64.9,21.4,64.4z"/>
		<path class="st0" d="M30.1,62.8c-0.1,0.5-0.1,1-0.1,1.2h-0.1c0-0.3-0.1-0.4-0.2-0.5c-0.1-0.1-0.4-0.1-0.8-0.1h-0.6v3.8
			c0,0.3,0,0.6,0.1,0.7c0.1,0.1,0.3,0.2,0.6,0.3v0.1c-0.1,0-0.3,0-0.4,0c-0.1,0-0.3,0-0.4,0c-0.1,0-0.3,0-0.4,0s-0.3,0-0.4,0
			s-0.3,0-0.4,0c-0.1,0-0.3,0-0.4,0v-0.1c0.3,0,0.5-0.1,0.6-0.2c0.1-0.1,0.2-0.4,0.2-0.7v-3.9h-0.3c-0.4,0-0.6,0-0.8,0.1
			c-0.2,0-0.3,0.1-0.4,0.2c-0.1,0.1-0.1,0.3-0.2,0.4l-0.1,0c0,0,0-0.1,0.1-0.3c0-0.1,0.1-0.3,0.1-0.4c0-0.1,0.1-0.3,0.1-0.4
			c0-0.1,0-0.2,0-0.3c0.3,0.1,0.6,0.2,1.2,0.2h2.3C29.6,62.9,29.9,62.9,30.1,62.8z"/>
		<path class="st0" d="M38.1,65.7v0.1c-0.1,0-0.1,0.1-0.2,0.3c0,0.2,0,0.4,0,0.7v1.3c-0.5,0.1-1.1,0.2-1.7,0.2c-0.5,0-1-0.1-1.4-0.3
			c-0.4-0.2-0.7-0.4-0.9-0.7c-0.3-0.3-0.4-0.6-0.5-0.9c-0.1-0.3-0.2-0.6-0.2-0.9c0-0.5,0.1-1,0.4-1.4c0.3-0.4,0.6-0.7,1-0.9
			s1-0.3,1.6-0.3c0.1,0,0.3,0,0.5,0c0.1,0,0.3,0,0.5,0c0.2,0,0.3,0,0.4,0c0.1,0,0.3,0,0.5,0c0,0.2,0,0.5,0,0.7c0,0.3,0,0.5,0,0.8
			h-0.1c0-0.4-0.2-0.8-0.5-0.9c-0.3-0.2-0.6-0.3-1.2-0.3c-0.4,0-0.7,0.1-1,0.2c-0.3,0.1-0.5,0.3-0.7,0.5c-0.2,0.2-0.3,0.4-0.4,0.7
			c-0.1,0.3-0.1,0.5-0.1,0.8c0,0.4,0.1,0.8,0.2,1.1c0.1,0.3,0.3,0.6,0.5,0.8c0.2,0.2,0.5,0.4,0.8,0.5c0.3,0.1,0.6,0.2,0.9,0.2
			c0.1,0,0.3,0,0.4,0c0.1,0,0.2-0.1,0.3-0.1c0.1-0.1,0.1-0.1,0.1-0.3v-1.1c0-0.2-0.1-0.4-0.2-0.4c-0.1-0.1-0.3-0.1-0.5-0.1v-0.1
			c0.1,0,0.3,0,0.4,0s0.3,0,0.4,0c0.1,0,0.2,0,0.4,0C37.8,65.7,38,65.7,38.1,65.7z"/>
		<path class="st0" d="M46.2,68.2c-0.1,0-0.3,0-0.4,0c-0.2,0-0.4,0-0.4,0c-0.1,0-0.3,0-0.4,0c-0.2,0-0.4,0-0.4,0v-0.1
			c0.1,0,0.2-0.1,0.3-0.1c0.1-0.1,0.1-0.1,0.1-0.2c0-0.2-0.1-0.6-0.4-1.3h-1.8c-0.1,0.2-0.1,0.4-0.2,0.5c-0.1,0.2-0.1,0.3-0.1,0.4
			c0,0.1,0,0.2,0,0.3c0,0.3,0.1,0.4,0.4,0.5v0.1c-0.1,0-0.2,0-0.4,0c-0.2,0-0.3,0-0.4,0s-0.2,0-0.4,0c-0.2,0-0.3,0-0.4,0v-0.1
			c0.1,0,0.3-0.1,0.3-0.2c0.1-0.1,0.1-0.3,0.2-0.5l1.7-4.6h0.4l1.7,4.7c0.1,0.2,0.1,0.4,0.3,0.4c0.1,0.1,0.2,0.1,0.4,0.1L46.2,68.2
			L46.2,68.2z M44.3,66l-0.8-2.2L42.8,66H44.3z"/>
		<path class="st0" d="M53.6,65.7v0.1c-0.1,0-0.1,0.1-0.2,0.3c0,0.2,0,0.4,0,0.7v1.3c-0.5,0.1-1.1,0.2-1.7,0.2c-0.5,0-1-0.1-1.4-0.3
			c-0.4-0.2-0.7-0.4-0.9-0.7c-0.3-0.3-0.4-0.6-0.5-0.9c-0.1-0.3-0.2-0.6-0.2-0.9c0-0.5,0.1-1,0.4-1.4c0.3-0.4,0.6-0.7,1-0.9
			c0.5-0.2,1-0.3,1.6-0.3c0.1,0,0.3,0,0.5,0c0.1,0,0.3,0,0.5,0c0.2,0,0.3,0,0.4,0c0.1,0,0.3,0,0.5,0c0,0.2,0,0.5,0,0.7
			c0,0.3,0,0.5,0,0.8h-0.1c0-0.4-0.2-0.8-0.5-0.9s-0.6-0.3-1.2-0.3c-0.4,0-0.7,0.1-1,0.2c-0.3,0.1-0.5,0.3-0.7,0.5
			c-0.2,0.2-0.3,0.4-0.4,0.7c-0.1,0.3-0.1,0.5-0.1,0.8c0,0.4,0.1,0.8,0.2,1.1c0.1,0.3,0.3,0.6,0.5,0.8c0.2,0.2,0.5,0.4,0.8,0.5
			c0.3,0.1,0.6,0.2,0.9,0.2c0.1,0,0.3,0,0.4,0c0.1,0,0.2-0.1,0.3-0.1c0.1-0.1,0.1-0.1,0.1-0.3v-1.1c0-0.2-0.1-0.4-0.2-0.4
			c-0.1-0.1-0.3-0.1-0.5-0.1v-0.1c0.1,0,0.3,0,0.4,0s0.3,0,0.4,0c0.1,0,0.2,0,0.4,0C53.3,65.7,53.5,65.7,53.6,65.7z"/>
		<path class="st0" d="M60.5,66.9c-0.1,0.4-0.2,0.9-0.4,1.3c-0.1,0-0.4,0-0.9,0c-0.3,0-0.5,0-0.9,0c-0.3,0-0.5,0-0.6,0
			c-0.1,0-0.3,0-0.5,0c-0.3,0-0.4,0-0.5,0v-0.1c0.2,0,0.3-0.1,0.4-0.1c0.1-0.1,0.1-0.2,0.2-0.4s0-0.5,0-1c0-0.8,0-1.4,0-1.8
			s0-0.6,0-0.8c0-0.2,0-0.4-0.1-0.4c0-0.1-0.1-0.2-0.1-0.3c-0.1-0.1-0.2-0.1-0.4-0.1v-0.1c0.2,0,0.4,0,0.7,0c0.3,0,0.5,0,0.6,0
			c0.1,0,0.3,0,0.4,0s0.4,0,0.6,0s0.4,0,0.6,0c0.2,0,0.4,0,0.6,0c0,0.1,0,0.3,0,0.6c0,0.3,0,0.4,0,0.5h-0.1c0-0.3-0.1-0.4-0.2-0.5
			c-0.1-0.1-0.3-0.1-0.5-0.1h-1.2v2h0.8c0.4,0,0.6,0,0.8,0c0.1,0,0.3-0.1,0.3-0.2c0-0.1,0.1-0.2,0.1-0.4h0.1c0,0.4,0,0.8,0,1.2
			c0,0.1,0,0.2,0,0.3h-0.1c0-0.2-0.1-0.3-0.1-0.4c-0.1-0.1-0.3-0.1-0.6-0.1h-1.1v1.7c0,0.2,0.1,0.3,0.2,0.4c0.1,0.1,0.4,0.1,0.7,0.1
			c0.3,0,0.5,0,0.6-0.1c0.2-0.1,0.3-0.1,0.4-0.3S60.4,67.2,60.5,66.9L60.5,66.9L60.5,66.9z"/>
		<path class="st0" d="M79.8,67c0,0.2,0,0.4-0.1,0.6c-0.1,0.2-0.3,0.4-0.5,0.5c-0.3,0.1-0.6,0.2-1,0.2c-0.5,0-1.1-0.1-1.7-0.3
			c-0.1-0.3-0.1-0.7-0.1-1.2v-0.2h0.1c0,0.5,0.2,0.9,0.5,1c0.4,0.2,0.7,0.3,1.1,0.3c0.3,0,0.6-0.1,0.7-0.3c0.1-0.2,0.2-0.4,0.2-0.6
			c0-0.3-0.1-0.5-0.3-0.6c-0.1-0.1-0.2-0.2-0.3-0.3c-0.1-0.1-0.3-0.2-0.6-0.3c-0.3-0.1-0.4-0.3-0.6-0.4c-0.1-0.1-0.3-0.2-0.4-0.3
			c-0.3-0.3-0.4-0.6-0.4-1c0-0.3,0.1-0.5,0.2-0.7s0.3-0.4,0.5-0.5c0.3-0.1,0.5-0.2,0.9-0.2c0.2,0,0.5,0,0.9,0.1
			c0.4,0,0.6,0.1,0.7,0.1c0,0.3-0.1,0.6-0.1,1c0,0.2,0,0.4,0,0.5h-0.1c0-0.4-0.1-0.7-0.3-0.9s-0.5-0.3-0.9-0.3
			c-0.4,0-0.6,0.1-0.8,0.2c-0.1,0.1-0.2,0.3-0.2,0.5c0,0.3,0.1,0.5,0.3,0.6c0.1,0.1,0.2,0.2,0.3,0.3c0.1,0.1,0.3,0.2,0.5,0.3
			c0.3,0.1,0.4,0.3,0.6,0.4s0.3,0.2,0.4,0.4c0.2,0.2,0.3,0.3,0.4,0.5C79.8,66.5,79.8,66.7,79.8,67z"/>
		<path class="st0" d="M88,65.7c0,0.5-0.1,1-0.4,1.4c-0.3,0.4-0.5,0.7-0.9,0.9c-0.4,0.2-0.8,0.3-1.2,0.3c-0.4,0-0.7-0.1-1-0.2
			c-0.3-0.1-0.6-0.3-0.8-0.6c-0.2-0.3-0.4-0.5-0.5-0.9c-0.1-0.4-0.2-0.7-0.2-1.2c0-0.5,0.1-0.9,0.3-1.3c0.2-0.4,0.4-0.6,0.6-0.9
			c0.3-0.2,0.5-0.4,0.8-0.5c0.3-0.1,0.5-0.1,0.8-0.1c0.4,0,0.8,0.1,1.2,0.3c0.4,0.2,0.7,0.5,1,1C87.9,64.4,88,65,88,65.7z
			 M87.2,65.7c0-0.6-0.1-1-0.3-1.4c-0.2-0.4-0.4-0.7-0.7-0.9c-0.3-0.2-0.5-0.3-0.8-0.3s-0.5,0.1-0.8,0.3s-0.4,0.4-0.6,0.8
			c-0.1,0.4-0.2,0.8-0.2,1.3c0,0.5,0.1,0.9,0.2,1.3c0.1,0.4,0.4,0.7,0.6,0.9c0.3,0.2,0.6,0.3,0.9,0.3c0.2,0,0.4,0,0.6-0.1
			c0.2-0.1,0.4-0.2,0.5-0.4c0.1-0.2,0.3-0.4,0.4-0.7C87.2,66.5,87.2,66.1,87.2,65.7z"/>
		<path class="st0" d="M95,66.9c-0.1,0.5-0.2,0.9-0.4,1.4c-0.5,0-1,0-1.4,0c-0.4,0-1.1,0-2,0v-0.1c0.1,0,0.3,0,0.3-0.1
			c0.1,0,0.1-0.1,0.2-0.3c0-0.1,0.1-0.3,0.1-0.5c0-0.2,0-0.5,0-0.9v-1.7c0-0.5,0-0.8-0.1-1c0-0.2-0.1-0.4-0.2-0.4
			c-0.1-0.1-0.2-0.1-0.4-0.1V63c0.1,0,0.3,0,0.5,0c0.3,0,0.4,0,0.5,0s0.3,0,0.5,0c0.3,0,0.4,0,0.5,0v0.1c-0.2,0-0.4,0.1-0.5,0.1
			s-0.2,0.1-0.2,0.2c0,0.1-0.1,0.3-0.1,0.5c0,0.3,0,0.6,0,1.2v1.8c0,0.1,0,0.1,0,0.2c0,0,0,0.1,0,0.1c0,0.2,0,0.3,0.1,0.4
			c0,0.1,0.1,0.2,0.3,0.2c0.1,0,0.3,0.1,0.6,0.1c0.3,0,0.4,0,0.6-0.1s0.3-0.1,0.4-0.3c0.1-0.1,0.2-0.4,0.3-0.6L95,66.9z"/>
		<path class="st0" d="M103.4,63c-0.2,0-0.4,0-0.5,0.1c-0.1,0.1-0.1,0.1-0.2,0.3c0,0.1,0,0.3,0,0.5V66c0,0.7-0.2,1.3-0.5,1.7
			s-0.9,0.6-1.5,0.6c-0.5,0-0.9-0.1-1.2-0.3c-0.3-0.1-0.6-0.4-0.8-0.7c-0.2-0.3-0.3-0.7-0.3-1.2v-2.4c0-0.2,0-0.4-0.1-0.5
			c0-0.1-0.1-0.2-0.2-0.2s-0.2,0-0.4,0v-0.1c0.1,0,0.3,0,0.5,0c0.2,0,0.4,0,0.5,0s0.3,0,0.5,0c0.2,0,0.4,0,0.5,0V63
			c-0.1,0-0.3,0-0.4,0.1c-0.1,0-0.1,0.1-0.2,0.3c0,0.1-0.1,0.4-0.1,0.6c0,0.3,0,0.7,0,1.2s0,0.9,0,1.2c0,0.3,0.1,0.5,0.1,0.7
			c0.1,0.2,0.2,0.4,0.4,0.5c0.3,0.3,0.6,0.4,1.1,0.4c0.4,0,0.7-0.1,0.9-0.3c0.2-0.2,0.3-0.4,0.4-0.7c0.1-0.3,0.1-0.6,0.1-0.9v-1.9
			c0-0.3,0-0.6-0.1-0.8c0-0.1-0.1-0.3-0.2-0.3c-0.1,0-0.2-0.1-0.4-0.1v-0.1c0.1,0,0.3,0,0.5,0c0.2,0,0.4,0,0.5,0s0.3,0,0.5,0
			c0.2,0,0.4,0,0.5,0L103.4,63L103.4,63z"/>
		<path class="st0" d="M110.8,62.8c-0.1,0.5-0.1,1-0.1,1.2h-0.1c0-0.3-0.1-0.4-0.2-0.5c-0.1-0.1-0.4-0.1-0.8-0.1h-0.6v3.8
			c0,0.3,0,0.6,0.1,0.7c0.1,0.1,0.3,0.2,0.6,0.3v0.1c-0.1,0-0.3,0-0.4,0c-0.1,0-0.3,0-0.4,0c-0.1,0-0.3,0-0.4,0c-0.1,0-0.3,0-0.4,0
			c-0.1,0-0.3,0-0.4,0c-0.1,0-0.3,0-0.4,0v-0.1c0.3,0,0.5-0.1,0.6-0.2c0.1-0.1,0.2-0.4,0.2-0.7v-3.9h-0.3c-0.4,0-0.6,0-0.8,0.1
			c-0.2,0-0.3,0.1-0.4,0.2c-0.1,0.1-0.1,0.3-0.2,0.4l-0.1,0c0,0,0-0.1,0.1-0.3c0-0.1,0-0.3,0.1-0.4c0-0.1,0.1-0.3,0.1-0.4
			c0-0.1,0-0.2,0-0.3c0.3,0.1,0.6,0.2,1.2,0.2h2.3C110.3,62.9,110.6,62.9,110.8,62.8z"/>
		<path class="st0" d="M115.8,63c-0.1,0-0.3,0-0.3,0.1c-0.1,0-0.1,0.1-0.2,0.3c0,0.1-0.1,0.4-0.1,0.6c0,0.3,0,0.6,0,1v1.8
			c0,0.3,0,0.5,0,0.7c0,0.1,0.1,0.3,0.1,0.4c0,0.1,0.1,0.1,0.2,0.1c0.1,0,0.2,0,0.3,0.1v0.1c-0.1,0-0.3,0-0.5,0c-0.2,0-0.4,0-0.5,0
			s-0.3,0-0.5,0c-0.2,0-0.4,0-0.5,0V68c0.2,0,0.3-0.1,0.4-0.1c0.1-0.1,0.1-0.2,0.2-0.5c0-0.3,0.1-0.6,0.1-1.2v-1.2
			c0-0.6,0-1.1,0-1.4c0-0.3-0.1-0.4-0.2-0.5c-0.1-0.1-0.3-0.1-0.5-0.1v-0.1c0.1,0,0.3,0,0.5,0c0.2,0,0.4,0,0.5,0s0.3,0,0.5,0
			c0.3,0,0.4,0,0.5,0L115.8,63L115.8,63z"/>
		<path class="st0" d="M123.9,65.7c0,0.5-0.1,1-0.4,1.4c-0.3,0.4-0.5,0.7-0.9,0.9c-0.4,0.2-0.8,0.3-1.2,0.3c-0.4,0-0.7-0.1-1-0.2
			c-0.3-0.1-0.6-0.3-0.8-0.6c-0.2-0.3-0.4-0.5-0.5-0.9c-0.1-0.4-0.2-0.7-0.2-1.2c0-0.5,0.1-0.9,0.3-1.3c0.2-0.4,0.4-0.6,0.6-0.9
			c0.3-0.2,0.5-0.4,0.8-0.5c0.3-0.1,0.5-0.1,0.8-0.1c0.4,0,0.8,0.1,1.2,0.3c0.4,0.2,0.7,0.5,1,1C123.8,64.4,123.9,65,123.9,65.7z
			 M123.1,65.7c0-0.6-0.1-1-0.3-1.4c-0.2-0.4-0.4-0.7-0.7-0.9s-0.5-0.3-0.8-0.3s-0.5,0.1-0.8,0.3s-0.4,0.4-0.6,0.8
			c-0.1,0.4-0.2,0.8-0.2,1.3c0,0.5,0.1,0.9,0.2,1.3c0.1,0.4,0.4,0.7,0.6,0.9c0.3,0.2,0.6,0.3,0.9,0.3c0.2,0,0.4,0,0.6-0.1
			c0.2-0.1,0.4-0.2,0.5-0.4c0.1-0.2,0.3-0.4,0.4-0.7C123,66.5,123.1,66.1,123.1,65.7z"/>
		<path class="st0" d="M132.7,63c-0.2,0-0.4,0-0.4,0.1c-0.1,0.1-0.1,0.1-0.2,0.3c0,0.1,0,0.3,0,0.5c0,0,0,0.1,0,0.1c0,0,0,0.1,0,0.1
			l0.1,4.1h-0.4c-0.5-0.5-0.8-0.9-1-1.1c-0.2-0.3-0.5-0.6-0.8-1c-0.3-0.4-0.6-0.8-0.9-1.2c-0.3-0.4-0.6-0.7-0.8-1l0.1,2.7
			c0,0.3,0,0.5,0.1,0.7c0,0.2,0.1,0.4,0.2,0.5c0.1,0.1,0.3,0.2,0.5,0.2v0.1c-0.1,0-0.3,0-0.5,0c-0.2,0-0.4,0-0.5,0
			c-0.1,0-0.3,0-0.5,0c-0.2,0-0.4,0-0.5,0v-0.1c0.2,0,0.3-0.1,0.4-0.1c0.1-0.1,0.2-0.2,0.2-0.3c0-0.1,0.1-0.4,0.1-0.6
			c0,0,0-0.1,0-0.1c0,0,0-0.1,0-0.1l-0.1-3.2c-0.1-0.1-0.3-0.3-0.4-0.3c-0.1-0.1-0.3-0.1-0.4-0.1v-0.1c0.1,0,0.2,0,0.3,0
			c0.1,0,0.3,0,0.3,0c0.1,0,0.2,0,0.3,0c0.1,0,0.3,0,0.3,0c0.2,0.3,0.4,0.6,0.8,1c0.4,0.4,0.7,0.9,1,1.3c0.4,0.4,0.6,0.8,0.9,1.1
			c0.3,0.3,0.5,0.6,0.8,0.9l-0.1-3c0-0.3,0-0.5-0.1-0.7c0-0.2-0.1-0.3-0.2-0.4c-0.1-0.1-0.3-0.1-0.5-0.1v-0.1c0.1,0,0.3,0,0.5,0
			c0.2,0,0.4,0,0.5,0c0.1,0,0.3,0,0.5,0c0.2,0,0.4,0,0.5,0L132.7,63L132.7,63z"/>
		<path class="st0" d="M139.2,67c0,0.2,0,0.4-0.1,0.6c-0.1,0.2-0.3,0.4-0.5,0.5c-0.3,0.1-0.6,0.2-1,0.2c-0.5,0-1.1-0.1-1.7-0.3
			c-0.1-0.3-0.1-0.7-0.1-1.2v-0.2h0.1c0,0.5,0.2,0.9,0.5,1c0.4,0.2,0.7,0.3,1.1,0.3c0.3,0,0.6-0.1,0.7-0.3c0.1-0.2,0.2-0.4,0.2-0.6
			c0-0.3-0.1-0.5-0.3-0.6c-0.1-0.1-0.2-0.2-0.3-0.3c-0.1-0.1-0.3-0.2-0.6-0.3c-0.3-0.1-0.4-0.3-0.6-0.4c-0.1-0.1-0.3-0.2-0.4-0.3
			c-0.3-0.3-0.4-0.6-0.4-1c0-0.3,0.1-0.5,0.2-0.7c0.1-0.2,0.3-0.4,0.5-0.5c0.3-0.1,0.5-0.2,0.9-0.2c0.2,0,0.5,0,0.9,0.1
			c0.4,0,0.6,0.1,0.7,0.1c0,0.3-0.1,0.6-0.1,1c0,0.2,0,0.4,0,0.5h-0.1c0-0.4-0.1-0.7-0.3-0.9s-0.5-0.3-0.9-0.3
			c-0.4,0-0.6,0.1-0.8,0.2c-0.1,0.1-0.2,0.3-0.2,0.5c0,0.3,0.1,0.5,0.3,0.6c0.1,0.1,0.2,0.2,0.3,0.3c0.1,0.1,0.3,0.2,0.5,0.3
			c0.3,0.1,0.4,0.3,0.6,0.4s0.3,0.2,0.4,0.4c0.2,0.2,0.3,0.3,0.4,0.5C139.2,66.5,139.2,66.7,139.2,67z"/>
	</g>
</g>
</svg>
