<?xml version="1.0" encoding="utf-8"?>
<!-- Generator: Adobe Illustrator 25.0.1, SVG Export Plug-In . SVG Version: 6.00 Build 0)  -->
<svg version="1.1" id="Capa_1" xmlns="http://www.w3.org/2000/svg" xmlns:xlink="http://www.w3.org/1999/xlink" x="0px" y="0px"
	 width="30px" height="30px" viewBox="0 0 30 30" style="enable-background:new 0 0 30 30;" xml:space="preserve">
<style type="text/css">
	.st0{fill:#FFFFFF;}
</style>
<g>
	<path class="st0" d="M27,0H3C1.4,0,0,1.4,0,3v24c0,1.6,1.4,3,3,3h24c1.6,0,3-1.4,3-3V3C30,1.4,28.6,0,27,0z M8.1,26.4H3.5v-4.1h4.6
		C8.1,22.3,8.1,26.4,8.1,26.4z M8.1,20.9H3.5v-4.1h4.6C8.1,16.9,8.1,20.9,8.1,20.9z M7.8,4.5C7,4.5,6.5,4,6.5,3.3S7,2,7.8,2
		S9,2.6,9,3.3S8.5,4.5,7.8,4.5z M14.2,26.4H9.6v-4.1h4.6V26.4z M14.2,20.9H9.6v-4.1h4.6V20.9z M14.2,15.5H9.6v-4.1h4.6V15.5z
		 M13.7,3.3C13.7,2.6,14.3,2,15,2s1.3,0.6,1.3,1.3S15.7,4.5,15,4.5S13.7,4,13.7,3.3z M20.4,20.9h-4.6v-4.1h4.6L20.4,20.9L20.4,20.9z
		 M20.4,15.5h-4.6v-4.1h4.6L20.4,15.5L20.4,15.5z M21,3.3C21,2.6,21.5,2,22.2,2s1.3,0.6,1.3,1.3S23,4.5,22.2,4.5S21,4,21,3.3z
		 M26.5,20.9h-4.6v-4.1h4.6V20.9z M26.5,15.5h-4.6v-4.1h4.6V15.5z"/>
</g>
</svg>
