<?xml version="1.0" encoding="utf-8"?>
<!-- Generator: Adobe Illustrator 25.1.0, SVG Export Plug-In . SVG Version: 6.00 Build 0)  -->
<svg version="1.1" id="Capa_1" xmlns="http://www.w3.org/2000/svg" xmlns:xlink="http://www.w3.org/1999/xlink" x="0px" y="0px"
	 width="18.1px" height="18.1px" viewBox="0 0 18.1 18.1" style="enable-background:new 0 0 18.1 18.1;" xml:space="preserve">
<style type="text/css">
	.st0{fill:#FFFFFF;}
</style>
<g>
	<g>
		<path class="st0" d="M6.5,10.3c-0.1,0-0.2,0-0.3,0.1c-0.1,0.1-0.1,0.2-0.1,0.3l0,2.6H1v-11h7.5v1.4c0.2-0.1,0.3-0.2,0.5-0.2h0.5
			V1.7c0-0.2-0.2-0.3-0.3-0.3H0.3C0.2,1.4,0,1.5,0,1.7v12c0,0.2,0.2,0.3,0.3,0.3H7c0.1,0,0.2,0,0.3-0.1l0.9-1v-2.8L6.5,10.3
			L6.5,10.3z"/>
		<path class="st0" d="M5.5,9.2l2.2-1.8c0,0,0.2-0.2,0-0.3C7.5,6.8,5.4,5.3,5.4,5.3S5.2,5,5.2,5.4c0,0.4,0,1,0,1s-0.2,0-0.4,0
			c-0.8,0-2.2,0-2.8,0c0,0-0.1,0-0.1,0.2c0,0.2,0,1.2,0,1.4S2,8.1,2,8.1c0.6,0,2,0,2.8,0c0.3,0,0.4,0,0.4,0s0,0.7,0,1
			C5.2,9.5,5.5,9.2,5.5,9.2z"/>
		<path class="st0" d="M17.7,4H8.8C8.6,4,8.5,4.1,8.5,4.3v12c0,0.2,0.2,0.3,0.3,0.3h6.7c0.1,0,0.2,0,0.3-0.1L18,14
			c0.1-0.1,0.1-0.1,0.1-0.2V4.3C18.1,4.1,17.9,4,17.7,4z M17,12.9l-2,0c0,0,0,0,0,0c-0.1,0-0.2,0-0.3,0.1s-0.1,0.2-0.1,0.3l0,2.6
			H9.5v-11H17L17,12.9L17,12.9z"/>
		<path class="st0" d="M12.7,12.3c0,0,0.3,0.3,0.3-0.1c0-0.4,0-1,0-1s0.2,0,0.4,0c0.8,0,2.2,0,2.8,0c0,0,0.1,0,0.1-0.2s0-1.2,0-1.4
			c0-0.2-0.2-0.2-0.2-0.2c-0.6,0-2,0-2.8,0c-0.3,0-0.4,0-0.4,0s0-0.7,0-1c0-0.3-0.3,0-0.3,0l-2.2,1.8c0,0-0.2,0.1,0,0.3
			C10.6,10.7,12.7,12.3,12.7,12.3z"/>
	</g>
</g>
</svg>
