<?xml version="1.0" encoding="utf-8"?>
<!-- Generator: Adobe Illustrator 25.0.1, SVG Export Plug-In . SVG Version: 6.00 Build 0)  -->
<svg version="1.1" id="Capa_1" xmlns="http://www.w3.org/2000/svg" xmlns:xlink="http://www.w3.org/1999/xlink" x="0px" y="0px"
	 width="226.8px" height="226.8px" viewBox="0 0 226.8 226.8" style="enable-background:new 0 0 226.8 226.8;" xml:space="preserve"
	>
<style type="text/css">
	.st0{fill:#FFFFFF;}
</style>
<path class="st0" d="M80.2,44.9v-9.7c0-1.8,1.4-3.2,3.2-3.2h60.1c1.8,0,3.2,1.4,3.2,3.2v9.7c0,1.8-1.4,3.2-3.2,3.2H83.4
	C81.6,48.1,80.2,46.7,80.2,44.9z M131.8,17c-0.8-9.5-8.7-17-18.4-17S95.8,7.5,95,17H131.8z M192.3,55.3v151.3
	c0,11.1-9,20.2-20.2,20.2H54.7c-11.1,0-20.2-9-20.2-20.2V55.3c0-11.1,9-20.2,20.2-20.2h10.5c0,0,0,0,0,0v9.7
	c0,10,8.2,18.2,18.2,18.2h60.1c10,0,18.2-8.2,18.2-18.2v-9.7c0,0,0,0,0,0h10.5C183.3,35.2,192.3,44.2,192.3,55.3z M88.2,143.4
	c-3.5-2.2-8.1-1.1-10.3,2.4l-7.1,11.5l-3.7-2.9c-3.3-2.6-8-2-10.5,1.3c-2.6,3.3-2,8,1.3,10.5l10.3,8.1c1.3,1,3,1.6,4.6,1.6
	c0.4,0,0.9,0,1.3-0.1c2.1-0.4,4-1.6,5.1-3.4l11.5-18.7C92.8,150.2,91.7,145.6,88.2,143.4z M88.2,89.4c-3.5-2.2-8.1-1.1-10.3,2.4
	l-7.1,11.5l-3.7-2.9c-3.3-2.6-8-2-10.5,1.3c-2.6,3.3-2,8,1.3,10.5l10.3,8.1c1.3,1,3,1.6,4.6,1.6c0.4,0,0.9,0,1.3-0.1
	c2.1-0.4,4-1.6,5.1-3.4l11.5-18.7C92.8,96.2,91.7,91.6,88.2,89.4z M165.9,168.5c0-4.1-3.4-7.5-7.5-7.5h-49c-4.1,0-7.5,3.4-7.5,7.5
	s3.4,7.5,7.5,7.5h49C162.5,176,165.9,172.6,165.9,168.5z M165.9,114.5c0-4.1-3.4-7.5-7.5-7.5h-49c-4.1,0-7.5,3.4-7.5,7.5
	s3.4,7.5,7.5,7.5h49C162.5,122,165.9,118.6,165.9,114.5z"/>
</svg>
