<?xml version="1.0" encoding="utf-8"?>
<!-- Generator: Adobe Illustrator 25.0.1, SVG Export Plug-In . SVG Version: 6.00 Build 0)  -->
<svg version="1.1" id="Capa_1" xmlns="http://www.w3.org/2000/svg" xmlns:xlink="http://www.w3.org/1999/xlink" x="0px" y="0px"
	 width="512px" height="512px" viewBox="0 0 512 512" style="enable-background:new 0 0 512 512;" xml:space="preserve">
<style type="text/css">
	.st0{fill:#FFFFFF;}
</style>
<g>
	<g>
		<path class="st0" d="M90,76c-24.8,0-45,20.2-45,45c0,24.8,20.2,45,45,45s45-20.2,45-45C135,96.2,114.8,76,90,76z"/>
	</g>
</g>
<g>
	<g>
		<path class="st0" d="M317,0H195c-24.8,0-45,21.2-45,46v30c0,24.8,20.2,45,45,45h54.8l56.6,55.6c4.3,4.3,10.8,5.6,16.3,3.3
			c5.6-2.3,9.3-7.8,9.3-13.9v-47.6c17.5-6.2,30-22.9,30-42.4V46C362,21.2,341.8,0,317,0z"/>
	</g>
</g>
<g>
	<g>
		<path class="st0" d="M239.1,474.7l-45-136c-3.3-13.4-15.3-22.7-29.1-22.7c-10.9,0-19.1,0-30,0c-8.3,0-15-6.7-15-15s6.7-15,15-15
			c16,0,29.3,0,45,0c16.6,0,30-13.4,30-30s-13.4-30-30-30H97.4l-10.6-28.4c-5-10-15.5-16.4-27.2-16.4c-13.4,0.1-25.5,9.6-28.8,22.5
			l-30,135c-4.7,18.8,9.4,36.9,28.7,37.2L0.5,493.4c-2,8,2.9,16.2,10.9,18.2c8,2,16.2-2.8,18.2-10.9L41.7,452h126.1l13.1,37.3
			c4.4,17.7,22,25.5,36.4,21.8C233.3,507.1,243.1,490.8,239.1,474.7z M49.2,422l10.3-42.4c0.3-1.2,0.2-2.4,0.2-3.6
			c28.6,0,66,0,81.8,0l15.8,46H49.2z"/>
	</g>
</g>
<g>
	<g>
		<path class="st0" d="M422,76c-24.8,0-45,20.2-45,45s20.2,45,45,45s45-20.2,45-45S446.8,76,422,76z"/>
	</g>
</g>
<g>
	<g>
		<path class="st0" d="M482.4,375.9c19.3-0.3,33.4-18.4,28.7-37.2l-30-135c-3.3-12.9-15.4-22.4-28.8-22.5
			c-11.7,0-22.2,6.4-27.2,16.4L414.6,226H332c-16.6,0-30,13.4-30,30s13.4,30,30,30c15.7,0,29,0,45,0c8.3,0,15,6.7,15,15
			s-6.7,15-15,15c-10.9,0-19.1,0-30,0c-13.8,0-25.8,9.3-29.1,22.7l-45,136c-4,16.1,5.8,32.4,21.8,36.4c14.4,3.7,31.9-4.1,36.4-21.8
			l13.1-37.3h126.1l12.2,48.6c2,8.1,10.2,12.9,18.2,10.9c8-2,12.9-10.2,10.9-18.2L482.4,375.9z M354.7,422l15.8-46.1
			c15.8,0,53.2,0,81.8,0c0,1.2-0.1,2.4,0.2,3.6l10.3,42.5H354.7z"/>
	</g>
</g>
</svg>
