<?xml version="1.0" encoding="utf-8"?>
<!-- Generator: Adobe Illustrator 25.0.1, SVG Export Plug-In . SVG Version: 6.00 Build 0)  -->
<svg version="1.1" id="Capa_1" xmlns="http://www.w3.org/2000/svg" xmlns:xlink="http://www.w3.org/1999/xlink" x="0px" y="0px"
	 width="512px" height="512px" viewBox="0 0 512 512" style="enable-background:new 0 0 512 512;" xml:space="preserve">
<style type="text/css">
	.st0{fill:#FFFFFF;}
</style>
<g>
	<path class="st0" d="M456.7,314.3L400,388.4c-11.4,14.8-29,23.6-47.7,23.6H247c-8.3,0-15-6.7-15-15s6.7-15,15-15h91.3
		c19.6,0,36.1-16.1,35.7-35.7c-0.4-19-15.9-34.3-35-34.3H234c-30.1-29-76.7-32.4-110.7-8.1L112,312v170h100h20h140.9
		c30.6,0,59.1-15.6,75.7-41.3l58.5-91.1c3.2-5,4.9-10.7,4.9-16.7C512,303.5,474.6,290.9,456.7,314.3L456.7,314.3z"/>
	<path class="st0" d="M67,282H15c-8.3,0-15,6.7-15,15v200c0,8.3,6.7,15,15,15h52c8.3,0,15-6.7,15-15V297C82,288.7,75.3,282,67,282z"
		/>
	<path class="st0" d="M286.3,82.9c-3.1,2.3-4.7,5.9-5.3,9c-0.8,4.2,0.2,8.2,2.6,10c0.8,0.7,1.8,1.3,2.7,1.9L286.3,82.9z"/>
	<path class="st0" d="M297,250c68.9,0,125-56.1,125-125S365.9,0,297,0S172,56.1,172,125S228.1,250,297,250z M259.2,165.9
		c3-4.6,9.2-5.9,13.8-2.9c5.4,3.5,8.8,5.1,13.3,5.7v-42.2c-6.4-2.9-11.2-5.7-15.1-8.8c-8.3-6.5-12.1-17.8-9.9-29.5
		c2.4-12.7,11.2-22.8,23.1-26.4c0.6-0.2,1.2-0.4,1.9-0.5V55c0-5.5,4.5-10,10-10s10,4.5,10,10v5.1c9.7,1.7,16.6,6.5,19.9,10.3
		c3.6,4.2,3.2,10.5-1,14.1c-4.1,3.6-10.4,3.2-14.1-0.9c-0.2-0.2-1.8-1.8-4.9-2.9V113c1.8,0.7,3.5,1.3,5.3,1.9
		c17.6,6.2,27.4,22.5,24.3,40.5c-2.4,14-13,28.2-29.6,32.4v7.2c0,5.5-4.5,10-10,10s-10-4.5-10-10v-6.2c-8.1-0.7-14.8-2.9-24.3-9.1
		C257.4,176.7,256.1,170.5,259.2,165.9L259.2,165.9z"/>
	<path class="st0" d="M316.2,152.1c0.7-3.9,0.9-13.2-9.9-17.8v32.1C311.9,163.2,315.3,157.5,316.2,152.1z"/>
</g>
</svg>
