<?xml version="1.0" encoding="utf-8"?>
<!-- Generator: Adobe Illustrator 25.1.0, SVG Export Plug-In . SVG Version: 6.00 Build 0)  -->
<svg version="1.1" id="Layer_1" xmlns="http://www.w3.org/2000/svg" xmlns:xlink="http://www.w3.org/1999/xlink" x="0px" y="0px"
	 width="512px" height="512px" viewBox="0 0 512 512" style="enable-background:new 0 0 512 512;" xml:space="preserve">
<style type="text/css">
	.st0{fill:#FFFFFF;}
</style>
<path class="st0" d="M368.4,106.9l-45.3-77.6c-2.2-3.7-5.7-6.4-9.8-7.4c-4.1-1-8.5-0.4-12.2,1.8l-138.5,83.1L368.4,106.9z"/>
<path class="st0" d="M64,128c-11.7,0-21.3-9.6-21.3-21.3S52.3,85.3,64,85.3h71.9l71.3-42.7H64c-31.6,0-57.8,23-62.9,53.3
	C0.6,97.7,0,99.4,0,101.3v325.3c0,35.2,28.8,64,64,64h362.7c23.5,0,42.7-19.2,42.7-42.7v-42.7H416c-52.9,0-96-43.1-96-96
	s43.1-96,96-96h53.3v-42.7c0-23.5-19.2-42.7-42.7-42.7H64z M405.3,85.3c0-21.5-16-39.5-36.9-42.2l36.9,63.6V85.3z"/>
<path class="st0" d="M496,245.3h-80c-35.3,0-64,28.7-64,64s28.7,64,64,64h80c8.8,0,16-7.2,16-16v-96
	C512,252.5,504.8,245.3,496,245.3z M416,330.7c-11.8,0-21.3-9.6-21.3-21.3S404.2,288,416,288s21.3,9.6,21.3,21.3
	S427.8,330.7,416,330.7z"/>
</svg>
