<?xml version="1.0" encoding="utf-8"?>
<!-- Generator: Adobe Illustrator 25.0.1, SVG Export Plug-In . SVG Version: 6.00 Build 0)  -->
<svg version="1.1" id="Layer_1" xmlns="http://www.w3.org/2000/svg" xmlns:xlink="http://www.w3.org/1999/xlink" x="0px" y="0px"
	 width="512px" height="512px" viewBox="0 0 512 512" style="enable-background:new 0 0 512 512;" xml:space="preserve">
<style type="text/css">
	.st0{fill:#FFFFFF;}
</style>
<path class="st0" d="M496.5,211.8h-47C445,193.4,438,176,428.9,160l36.9-36.9c6.1-6.1,6.1-15.9,0-22l-48.4-48.4
	c-6.1-6.1-15.9-6.1-22,0l-35.9,35.9c-16-9.8-33.6-17.4-52.2-22.4V15.7c0-8.6-6.9-15.5-15.5-15.5h-68.4c-8.6,0-15.5,6.9-15.5,15.5
	v49.7c-19.2,4.7-37.3,12.3-53.9,22.1l-32-32c-6.1-6.1-15.9-6.1-22,0L51.8,104c-6.1,6.1-6.1,15.9,0,22L84,158.1
	c-9.7,16.5-17.1,34.6-21.7,53.7H15.5c-8.6,0-15.5,6.9-15.5,15.5v68.4c0,8.6,6.9,15.5,15.5,15.5h48.1c5,18.3,12.5,35.5,22.1,51.3
	l-34.6,34.6c-6.1,6.1-6.1,15.9,0,22l48.4,48.4c6.1,6.1,15.9,6.1,22,0l35.6-35.6c15.2,8.7,31.6,15.4,48.9,19.9v44.6
	c0,8.6,6.9,15.5,15.5,15.5h68.4c8.6,0,15.5-6.9,15.5-15.5v-44.5c18.2-4.7,35.4-11.8,51.2-21.1l37.1,37.1c6.1,6.1,15.9,6.1,22,0
	l48.4-48.4c6.1-6.1,6.1-15.9,0-22l-36.9-36.9c9.1-15.3,16.2-31.8,21-49.4h48.4c8.6,0,15.5-6.9,15.5-15.5v-68.4
	C512,218.8,505.1,211.8,496.5,211.8L496.5,211.8z M120,211.1c-4.7-7.4-2.5-17.3,4.9-22c7-4.4,16-2.8,21,3.6
	c22.3-38.2,63.8-63,109.5-63c55.2,0,103.7,35.3,120.6,87.8c2.7,8.4-1.9,17.4-10.3,20.1c-8.4,2.7-17.4-1.9-20.1-10.3
	c-12.6-39.3-48.9-65.7-90.2-65.7c-32.2,0-61.5,16.4-78.8,42.1c7.2-0.1,13.9,4.7,15.8,12c2.2,8.5-3,17.2-11.6,19.4l-28.2,7.1
	c-6.2,1.6-13.7-0.9-17.4-6.9L120,211.1z M387,322.9c-7,4.4-16,2.8-21-3.6c-22.3,38.2-63.8,63-109.5,63
	c-55.2,0-103.7-35.3-120.6-87.8c-2.7-8.4,1.9-17.4,10.3-20.1c8.4-2.7,17.4,1.9,20.1,10.3c12.6,39.3,48.9,65.7,90.2,65.7
	c32.2,0,61.5-16.4,78.7-42.1c-0.1,0-0.2,0-0.3,0c-7.1,0-13.6-4.8-15.4-12c-2.2-8.5,3-17.2,11.6-19.4l28.2-7.1
	c6.2-1.6,13.9,0.9,17.5,7.2l15.2,23.9C396.7,308.3,394.5,318.2,387,322.9L387,322.9z"/>
</svg>
