<?xml version="1.0" encoding="utf-8"?>
<!-- Generator: Adobe Illustrator 25.1.0, SVG Export Plug-In . SVG Version: 6.00 Build 0)  -->
<svg version="1.1" id="Layer_1" xmlns="http://www.w3.org/2000/svg" xmlns:xlink="http://www.w3.org/1999/xlink" x="0px" y="0px"
	 width="440px" height="440px" viewBox="0 0 440 440" style="enable-background:new 0 0 440 440;" xml:space="preserve">
<style type="text/css">
	.st0{fill:#FFFFFF;}
</style>
<g>
	<path class="st0" d="M320.3,241.1c-54.8,0-99.4,44.6-99.4,99.4s44.6,99.4,99.4,99.4s99.4-44.6,99.4-99.4S375.1,241.1,320.3,241.1z
		 M307.8,395.1L249,336.3l21.2-21.2l37.6,37.6l56-56l21.2,21.2L307.8,395.1z"/>
	<polygon class="st0" points="235.3,15 235.3,85 305.3,85 	"/>
	<path class="st0" d="M70.3,347.5v-30h122.6c2.6-14.3,7.5-27.8,14.4-40h-137v-30h160.2c23.3-22.5,55-36.4,89.8-36.4V115h-115V0h-185
		v415h194.2c-13.6-19.3-22.1-42.5-23.4-67.5H70.3z M70.3,177.5h200v30h-200V177.5z"/>
</g>
</svg>
