<?xml version="1.0" encoding="utf-8"?>
<!-- Generator: Adobe Illustrator 25.1.0, SVG Export Plug-In . SVG Version: 6.00 Build 0)  -->
<svg version="1.1" id="Capa_1" xmlns="http://www.w3.org/2000/svg" xmlns:xlink="http://www.w3.org/1999/xlink" x="0px" y="0px"
	 width="512px" height="512px" viewBox="0 0 512 512" style="enable-background:new 0 0 512 512;" xml:space="preserve">
<style type="text/css">
	.st0{fill:#FFFFFF;}
</style>
<g>
	<path class="st0" d="M331,0c-66.2,0-120,54.8-120,121s53.8,120,120,120s120-53.8,120-120S397.2,0,331,0z M301,61
		c8.3,0,15,6.7,15,15c0,8.3-6.7,15-15,15s-15-6.7-15-15C286,67.7,292.7,61,301,61z M361,181c-8.3,0-15-6.7-15-15c0-8.3,6.7-15,15-15
		s15,6.7,15,15C376,174.3,369.3,181,361,181z M373.5,84.3l-60,90c-4.6,6.9-14,8.7-20.8,4.2c-6.9-4.6-8.8-13.9-4.2-20.8l60-90
		c4.6-6.9,13.9-8.7,20.8-4.2C376.2,68.1,378.1,77.4,373.5,84.3L373.5,84.3z"/>
	<path class="st0" d="M4.4,380.4c-5.9,5.9-5.9,15.4,0,21.2l105,106c5.9,5.9,15.4,5.9,21.2,0l21.2-21.2c5.9-5.9,5.9-15.4,0-21.2
		l-105-106c-5.9-5.9-15.4-5.9-21.2,0L4.4,380.4z"/>
	<path class="st0" d="M393.3,417.9l114-106.4c6.2-5.9,6.2-15.6,0.3-21.5c-0.1-0.1-0.2-0.2-0.3-0.3c-16.4-16.2-44.5-14.6-61.8,0.6
		l-64.6,58.2c-7.9,7.8-19.1,12.5-31.1,12.5H256c-8.3,0-15-6.7-15-15s6.7-15,15-15h90c16.6,0,30-13.4,30-30c0-16.6-13.4-30-30-30
		h-61.7c-32.2-35.9-94.5-38.8-129.8-5.5l-81.7,77.1l95.9,96.9l17.6-17.6H383C386.8,422,390.5,420.5,393.3,417.9L393.3,417.9z"/>
</g>
</svg>
